# xmcd
# Copyright (C) 1995-1998 Ti Kan
#
# Track frame offsets:
#       150
#       14860
#       34032
#       52570
#       73632
#       90645
#       109836
#       127085
#       143375
#       158096
#       177377
#       196504
#       217444
#       240921
#
# Disc length: 4549 seconds
#
# Revision: 0
# Processed by: cddbd v1.5.2PL0 Copyright (c) Steve Scherf et al.
# Submitted via: CD-Transfer v1.0
#
DISCID=bb11c30e
DTITLE=Agnes - Dance, Love Pop
DYEAR=09
DGENRE=
TTITLE0=Big Blue Wal
TTITLE1=Release Me
TTITLE2=On And On
TTITLE3=Love Me Sensless
TTITLE4=I Nee You Now
TTITLE5=You Rain
TTITLE6=How Do You Know
TTITLE7=Open Up  Your Eyes
TTITLE8=Don`t Pull Your Love Out
TTITLE9=Sometimes I Forget
TTITLE10=Release Me (Acoustic)
TTITLE11=Big Blu Wall (Piano)
TTITLE12=On And On (Acoustic)
TTITLE13=Data Track
EXTD=
EXTT0=
EXTT1=
EXTT2=
EXTT3=
EXTT4=
EXTT5=
EXTT6=
EXTT7=
EXTT8=
EXTT9=
EXTT10=
EXTT11=
EXTT12=
EXTT13=
PLAYORDER=
